<svg xmlns="http://www.w3.org/2000/svg" xmlns:xlink="http://www.w3.org/1999/xlink" width="226.175" height="40.059" viewBox="0 0 226.175 40.059">
  <defs>
    <clipPath id="clip-path">
      <rect id="長方形_24871" data-name="長方形 24871" width="8.568" height="13.45" transform="translate(0 -0.001)" fill="none"/>
    </clipPath>
    <clipPath id="clip-path-2">
      <rect id="長方形_24870" data-name="長方形 24870" width="14.366" height="16.941" transform="translate(0 0)" fill="none"/>
    </clipPath>
    <clipPath id="clip-path-3">
      <rect id="長方形_24870-2" data-name="長方形 24870" width="9.419" height="11.107" fill="none"/>
    </clipPath>
    <clipPath id="clip-path-4">
      <rect id="長方形_24871-2" data-name="長方形 24871" width="6.565" height="10.305" fill="none"/>
    </clipPath>
  </defs>
  <g id="グループ_16942" data-name="グループ 16942" transform="translate(-257.947 -1799.391)">
    <g id="グループ_16939" data-name="グループ 16939" transform="translate(466 1826)">
      <g id="グループ_16938" data-name="グループ 16938" clip-path="url(#clip-path)">
        <path id="パス_24194" data-name="パス 24194" d="M5.229,6.019c.519.69,1.022,1.333,1.494,2C7.138,8.6,7.839,9,8.031,9.969,6.282,9.612,5.841,7.81,4.443,7.207,3.494,8.326,2.535,9.456,1.4,10.785c-.126-.472-.307-.76-.228-.915A20.182,20.182,0,0,1,2.423,7.757c.422-.62.92-1.189,1.448-1.861-.614-1.241-1.22-2.458-1.815-3.677a2.259,2.259,0,0,1-.283-.754c-.012-.147.176-.342.32-.453a.376.376,0,0,1,.367.067,7.132,7.132,0,0,1,.67,1.01c.415.78.8,1.575,1.286,2.539A12.808,12.808,0,0,0,5.513,3.6c.7-.841,1.326-1.747,2.059-2.557.32-.353.756-.27,1,.425A38.585,38.585,0,0,0,5.229,6.019" fill-rule="evenodd"/>
        <path id="パス_24195" data-name="パス 24195" d="M8.519,6.957c-1.142-.09-2.283-.182-3.5-.28-.576,1.2-.348,2.388-.524,3.512-.162,1.052.358,2.13-.059,3.26-.808-.908-.943-1.488-.929-3.278a9.025,9.025,0,0,0-.067-3.324c-.822-.44-1.734-.135-2.6-.229C.336,6.563-.1,6.36.019,5.654c1.086-.555,2.275-.082,3.553-.295A8.507,8.507,0,0,0,3.88,4.09c.112-1.229.157-2.464.264-3.694.014-.149.3-.42.357-.395.217.09.506.25.559.443a2.943,2.943,0,0,1,0,1.013c-.08.89-.2,1.778-.263,2.669-.084,1.21.153,1.486,1.313,1.586a3.694,3.694,0,0,1,1.994.363,1.513,1.513,0,0,1,.412.439c.057.094.006.254,0,.443" fill-rule="evenodd"/>
      </g>
    </g>
    <g id="グループ_16941" data-name="グループ 16941">
      <g id="グループ_16937" data-name="グループ 16937" transform="translate(269 1799.391)">
        <g id="グループ_16936" data-name="グループ 16936" clip-path="url(#clip-path-2)">
          <path id="パス_24193" data-name="パス 24193" d="M9.62,7.794c1.173.075,2.2.135,3.228.212a3.445,3.445,0,0,1,1.01.165.863.863,0,0,1,.508.541c.015.16-.29.478-.491.512a6.2,6.2,0,0,1-3.261,0c-.884-.326-1.366.049-1.873.76A8.632,8.632,0,0,0,7.12,14.8a3.278,3.278,0,0,1-.543,2.141c-.658.035-.854-.389-.84-.912A9.984,9.984,0,0,1,5.959,14.6,6.416,6.416,0,0,0,4.573,9.589c-.068-.094-.241-.113-.472-.214-.759.407-1.564,1.036-2.594.672A2.036,2.036,0,0,1,0,8.776a.5.5,0,0,1,.844-.161,1.685,1.685,0,0,0,2.551-.273c1.85-1.926,3.406-3.993,3-6.916A8.734,8.734,0,0,1,6.419,0C7.4.06,7.554.159,7.564.784s-.054,1.24-.017,1.854A8.121,8.121,0,0,0,9.62,7.794m-4.564.421,1.627,3.029c.674-1.1,1.3-2.125,1.91-3.117-.617-.92-1.175-1.751-1.821-2.716-.595.971-1.152,1.881-1.716,2.8" fill-rule="evenodd"/>
        </g>
      </g>
      <g id="グループ_16940" data-name="グループ 16940" transform="translate(257.947 1811.391)">
        <g id="グループ_16936-2" data-name="グループ 16936" transform="translate(0 0)" clip-path="url(#clip-path-3)">
          <path id="パス_24193-2" data-name="パス 24193" d="M6.307,5.11c.769.049,1.444.089,2.116.139a2.259,2.259,0,0,1,.662.108.566.566,0,0,1,.333.355c.01.1-.19.313-.322.336a4.065,4.065,0,0,1-2.138,0c-.58-.214-.9.032-1.228.5A5.659,5.659,0,0,0,4.668,9.7a2.149,2.149,0,0,1-.356,1.4c-.431.023-.56-.255-.551-.6a6.546,6.546,0,0,1,.146-.935A4.207,4.207,0,0,0,3,6.287c-.045-.062-.158-.074-.309-.14-.5.267-1.025.679-1.7.441A1.335,1.335,0,0,1,0,5.754a.329.329,0,0,1,.553-.106,1.1,1.1,0,0,0,1.673-.179C3.439,4.207,4.459,2.851,4.191.935A5.727,5.727,0,0,1,4.209,0c.644.039.744.1.751.514s-.035.813-.011,1.216A5.324,5.324,0,0,0,6.307,5.11m-2.992.276L4.382,7.372,5.634,5.328,4.44,3.548,3.315,5.386" transform="translate(0 0)" fill-rule="evenodd"/>
        </g>
      </g>
    </g>
    <g id="グループ_16943" data-name="グループ 16943" transform="translate(477.558 1820.42)">
      <g id="グループ_16938-2" data-name="グループ 16938" transform="translate(0 -0.001)" clip-path="url(#clip-path-4)">
        <path id="パス_24194-2" data-name="パス 24194" d="M4.277,4.807c.4.529.783,1.021,1.145,1.532.318.45.855.755,1,1.495C5.084,7.56,4.746,6.179,3.675,5.717c-.727.857-1.462,1.723-2.328,2.741-.1-.362-.235-.582-.175-.7a15.463,15.463,0,0,1,.955-1.619c.323-.475.7-.911,1.109-1.426C2.766,3.762,2.3,2.829,1.846,1.9a1.731,1.731,0,0,1-.217-.578c-.009-.113.135-.262.245-.347a.288.288,0,0,1,.281.051,5.464,5.464,0,0,1,.513.774c.318.6.614,1.207.985,1.945a9.813,9.813,0,0,0,.841-.791C5.032,2.306,5.511,1.612,6.072.991c.245-.27.579-.207.763.326a29.563,29.563,0,0,0-2.558,3.49" transform="translate(-0.271 -0.195)" fill-rule="evenodd"/>
        <path id="パス_24195-2" data-name="パス 24195" d="M6.527,5.33c-.875-.069-1.749-.139-2.68-.215a8.413,8.413,0,0,0-.4,2.691c-.124.806.274,1.632-.045,2.5-.619-.7-.723-1.14-.712-2.512a6.915,6.915,0,0,0-.051-2.547c-.63-.337-1.329-.1-1.991-.175-.388-.042-.719-.2-.631-.739.832-.425,1.743-.063,2.722-.226a6.518,6.518,0,0,0,.236-.972c.086-.942.12-1.888.2-2.83.011-.114.228-.322.274-.3.166.069.388.192.428.339a2.255,2.255,0,0,1,0,.776c-.061.682-.152,1.362-.2,2.045-.064.927.117,1.139,1.006,1.215a2.83,2.83,0,0,1,1.528.278,1.159,1.159,0,0,1,.316.336c.044.072,0,.195,0,.339" transform="translate(0 0.001)" fill-rule="evenodd"/>
      </g>
    </g>
  </g>
</svg>
